<mxfile host="app.diagrams.net" modified="2021-11-23T02:53:32.045Z" agent="5.0 (X11; Linux x86_64) AppleWebKit/537.36 (KHTML, like Gecko) Chrome/96.0.4664.45 Safari/537.36" etag="yv06W7V96PKRvb8jFz3J" version="15.8.3" type="github">
  <diagram id="FeOVo2In9aZyyjj7PISx" name="Page-1">
    <mxGraphModel dx="1230" dy="722" grid="1" gridSize="10" guides="1" tooltips="1" connect="1" arrows="1" fold="1" page="1" pageScale="1" pageWidth="850" pageHeight="1100" math="0" shadow="0">
      <root>
        <mxCell id="0" />
        <mxCell id="1" parent="0" />
        <mxCell id="bcKeA9mukgD3mRWxeDYU-1" value="" style="rounded=0;whiteSpace=wrap;html=1;fontSize=25;fontColor=#000000;align=left;fillColor=#FFFFFF;fontStyle=0" parent="1" vertex="1">
          <mxGeometry x="150" y="70" width="480" height="360" as="geometry" />
        </mxCell>
        <mxCell id="bcKeA9mukgD3mRWxeDYU-2" value="" style="rounded=0;whiteSpace=wrap;html=1;fillColor=#d5e8d4;strokeColor=#82b366;strokeWidth=2;fontStyle=0;fontSize=25;" parent="1" vertex="1">
          <mxGeometry x="410" y="208" width="166" height="50" as="geometry" />
        </mxCell>
        <mxCell id="bcKeA9mukgD3mRWxeDYU-3" value="begin_tx&lt;br style=&quot;font-size: 25px&quot;&gt;&amp;nbsp;&lt;br style=&quot;font-size: 25px&quot;&gt;&lt;br style=&quot;font-size: 25px&quot;&gt;&lt;br style=&quot;font-size: 25px&quot;&gt;&lt;span style=&quot;font-size: 25px&quot;&gt;&lt;br style=&quot;font-size: 25px&quot;&gt;end_tx&lt;/span&gt;" style="text;html=1;fillColor=#f8cecc;align=left;verticalAlign=top;whiteSpace=wrap;rounded=0;fontSize=25;strokeWidth=2;strokeColor=#b85450;fontStyle=0" parent="1" vertex="1">
          <mxGeometry x="220" y="160" width="129" height="220" as="geometry" />
        </mxCell>
        <mxCell id="bcKeA9mukgD3mRWxeDYU-4" value="memory area" style="text;html=1;strokeColor=none;fillColor=none;align=center;verticalAlign=middle;whiteSpace=wrap;rounded=0;fontSize=25;fontStyle=0" parent="1" vertex="1">
          <mxGeometry x="423" y="150" width="156" height="20" as="geometry" />
        </mxCell>
        <mxCell id="bcKeA9mukgD3mRWxeDYU-5" value="" style="endArrow=classic;html=1;fontSize=25;strokeWidth=2;dashed=1;fontStyle=0" parent="1" target="bcKeA9mukgD3mRWxeDYU-9" edge="1">
          <mxGeometry width="50" height="50" relative="1" as="geometry">
            <mxPoint x="199" y="70" as="sourcePoint" />
            <mxPoint x="199" y="400" as="targetPoint" />
          </mxGeometry>
        </mxCell>
        <mxCell id="bcKeA9mukgD3mRWxeDYU-6" value="" style="rounded=0;whiteSpace=wrap;html=1;fontSize=25;fillColor=#dae8fc;strokeColor=#6c8ebf;strokeWidth=2;fontStyle=0" parent="1" vertex="1">
          <mxGeometry x="430" y="306" width="150" height="40" as="geometry" />
        </mxCell>
        <mxCell id="bcKeA9mukgD3mRWxeDYU-7" value="" style="rounded=0;whiteSpace=wrap;html=1;fontSize=25;strokeWidth=2;fillColor=#dae8fc;strokeColor=#6c8ebf;fontStyle=0" parent="1" vertex="1">
          <mxGeometry x="426" y="100" width="150" height="40" as="geometry" />
        </mxCell>
        <mxCell id="bcKeA9mukgD3mRWxeDYU-8" value="log area" style="text;html=1;strokeColor=none;fillColor=none;align=center;verticalAlign=middle;whiteSpace=wrap;rounded=0;fontSize=25;fontStyle=0" parent="1" vertex="1">
          <mxGeometry x="451" y="258" width="100" height="20" as="geometry" />
        </mxCell>
        <mxCell id="bcKeA9mukgD3mRWxeDYU-9" value="Time" style="text;html=1;strokeColor=none;fillColor=none;align=center;verticalAlign=middle;whiteSpace=wrap;rounded=0;fontSize=25;fontStyle=0" parent="1" vertex="1">
          <mxGeometry x="179" y="390" width="40" height="20" as="geometry" />
        </mxCell>
        <mxCell id="bcKeA9mukgD3mRWxeDYU-11" value="store(A,1)" style="text;html=1;strokeColor=none;fillColor=none;align=center;verticalAlign=middle;whiteSpace=wrap;rounded=0;fontSize=25;fontStyle=0" parent="1" vertex="1">
          <mxGeometry x="224" y="223" width="110" height="20" as="geometry" />
        </mxCell>
        <mxCell id="bcKeA9mukgD3mRWxeDYU-13" value="memory area" style="text;html=1;strokeColor=none;fillColor=none;align=center;verticalAlign=middle;whiteSpace=wrap;rounded=0;fontSize=25;fontStyle=0" parent="1" vertex="1">
          <mxGeometry x="427" y="350" width="150" height="20" as="geometry" />
        </mxCell>
        <mxCell id="bcKeA9mukgD3mRWxeDYU-14" value="A" style="text;html=1;strokeColor=none;fillColor=none;align=center;verticalAlign=middle;whiteSpace=wrap;rounded=0;fontSize=25;fontColor=#000000;fontStyle=0" parent="1" vertex="1">
          <mxGeometry x="445" y="110" width="40" height="20" as="geometry" />
        </mxCell>
        <mxCell id="bcKeA9mukgD3mRWxeDYU-17" value="1" style="ellipse;whiteSpace=wrap;html=1;aspect=fixed;fontSize=25;fontColor=#ffffff;fillColor=#76608a;align=center;fontStyle=0;strokeColor=#432D57;" parent="1" vertex="1">
          <mxGeometry x="590" y="105" width="30" height="30" as="geometry" />
        </mxCell>
        <mxCell id="bcKeA9mukgD3mRWxeDYU-18" value="0" style="rounded=0;whiteSpace=wrap;html=1;fontSize=25;fontColor=#000000;fillColor=#FFFFFF;align=center;fontStyle=0" parent="1" vertex="1">
          <mxGeometry x="485" y="110" width="40" height="20" as="geometry" />
        </mxCell>
      </root>
    </mxGraphModel>
  </diagram>
</mxfile>
